<svg width="47" height="59" viewBox="0 0 47 59" fill="none" xmlns="http://www.w3.org/2000/svg">
<path d="M11.6667 42.2917C11.0898 42.2917 10.5259 42.4627 10.0463 42.7832C9.56661 43.1037 9.19277 43.5592 8.97202 44.0922C8.75126 44.6251 8.6935 45.2116 8.80604 45.7773C8.91858 46.3431 9.19637 46.8628 9.60427 47.2707C10.0122 47.6786 10.5319 47.9564 11.0977 48.069C11.6634 48.1815 12.2499 48.1237 12.7828 47.903C13.3158 47.6822 13.7713 47.3084 14.0918 46.8287C14.4123 46.3491 14.5833 45.7852 14.5833 45.2083C14.5833 44.4348 14.276 43.6929 13.7291 43.1459C13.1821 42.599 12.4402 42.2917 11.6667 42.2917V42.2917ZM23.3333 0C11.6667 0 0 3.99583 0 11.6667V46.6667C0 54.3375 11.6667 58.3333 23.3333 58.3333C35 58.3333 46.6667 54.3375 46.6667 46.6667V11.6667C46.6667 3.99583 35 0 23.3333 0ZM40.8333 46.6667C40.8333 48.7375 34.1833 52.5 23.3333 52.5C12.4833 52.5 5.83333 48.7375 5.83333 46.6667V37.1292C11.2935 39.7249 17.2897 40.9941 23.3333 40.8333C29.377 40.9941 35.3731 39.7249 40.8333 37.1292V46.6667ZM40.8333 29.1667C40.8333 31.2375 34.1833 35 23.3333 35C12.4833 35 5.83333 31.2375 5.83333 29.1667V19.6292C11.2935 22.2249 17.2897 23.4941 23.3333 23.3333C29.377 23.4941 35.3731 22.2249 40.8333 19.6292V29.1667ZM23.3333 17.5C12.4833 17.5 5.83333 13.7375 5.83333 11.6667C5.83333 9.59583 12.4833 5.83333 23.3333 5.83333C34.1833 5.83333 40.8333 9.59583 40.8333 11.6667C40.8333 13.7375 34.1833 17.5 23.3333 17.5ZM11.6667 24.7917C11.0898 24.7917 10.5259 24.9627 10.0463 25.2832C9.56661 25.6037 9.19277 26.0592 8.97202 26.5922C8.75126 27.1251 8.6935 27.7116 8.80604 28.2773C8.91858 28.8431 9.19637 29.3628 9.60427 29.7707C10.0122 30.1786 10.5319 30.4564 11.0977 30.569C11.6634 30.6815 12.2499 30.6237 12.7828 30.403C13.3158 30.1822 13.7713 29.8084 14.0918 29.3287C14.4123 28.8491 14.5833 28.2852 14.5833 27.7083C14.5833 26.9348 14.276 26.1929 13.7291 25.6459C13.1821 25.099 12.4402 24.7917 11.6667 24.7917V24.7917Z" fill="#001933"/>
</svg>
