<svg width="70" height="70" viewBox="0 0 70 70" fill="none" xmlns="http://www.w3.org/2000/svg">
<path d="M23.3334 48.125C22.7565 48.125 22.1926 48.2961 21.7129 48.6166C21.2333 48.9371 20.8595 49.3926 20.6387 49.9255C20.4179 50.4585 20.3602 51.0449 20.4727 51.6107C20.5853 52.1765 20.8631 52.6962 21.271 53.1041C21.6789 53.512 22.1986 53.7898 22.7643 53.9023C23.3301 54.0149 23.9166 53.9571 24.4495 53.7364C24.9825 53.5156 25.438 53.1418 25.7585 52.6621C26.079 52.1825 26.25 51.6186 26.25 51.0417C26.25 50.2682 25.9427 49.5263 25.3957 48.9793C24.8488 48.4323 24.1069 48.125 23.3334 48.125ZM35 5.83337C23.3334 5.83337 11.6667 9.82921 11.6667 17.5V52.5C11.6667 60.1709 23.3334 64.1667 35 64.1667C46.6667 64.1667 58.3334 60.1709 58.3334 52.5V17.5C58.3334 9.82921 46.6667 5.83337 35 5.83337ZM52.5 52.5C52.5 54.5709 45.85 58.3334 35 58.3334C24.15 58.3334 17.5 54.5709 17.5 52.5V42.9625C22.9602 45.5582 28.9564 46.8274 35 46.6667C41.0437 46.8274 47.0398 45.5582 52.5 42.9625V52.5ZM52.5 35C52.5 37.0709 45.85 40.8334 35 40.8334C24.15 40.8334 17.5 37.0709 17.5 35V25.4625C22.9602 28.0582 28.9564 29.3274 35 29.1667C41.0437 29.3274 47.0398 28.0582 52.5 25.4625V35ZM35 23.3334C24.15 23.3334 17.5 19.5709 17.5 17.5C17.5 15.4292 24.15 11.6667 35 11.6667C45.85 11.6667 52.5 15.4292 52.5 17.5C52.5 19.5709 45.85 23.3334 35 23.3334ZM23.3334 30.625C22.7565 30.625 22.1926 30.7961 21.7129 31.1166C21.2333 31.4371 20.8595 31.8926 20.6387 32.4255C20.4179 32.9585 20.3602 33.5449 20.4727 34.1107C20.5853 34.6765 20.8631 35.1962 21.271 35.6041C21.6789 36.012 22.1986 36.2898 22.7643 36.4023C23.3301 36.5149 23.9166 36.4571 24.4495 36.2364C24.9825 36.0156 25.438 35.6418 25.7585 35.1621C26.079 34.6825 26.25 34.1186 26.25 33.5417C26.25 32.7682 25.9427 32.0263 25.3957 31.4793C24.8488 30.9323 24.1069 30.625 23.3334 30.625Z" fill="#001933"/>
</svg>
