<svg width="50" height="52" viewBox="0 0 50 52" fill="none" xmlns="http://www.w3.org/2000/svg">
<path fill-rule="evenodd" clip-rule="evenodd" d="M37.7059 0.326277C35.0497 -3.83127e-05 31.7018 -2.11847e-05 27.4308 3.48979e-07H22.5692C18.2982 -2.11847e-05 14.9503 -3.83127e-05 12.2941 0.326277C9.58358 0.659279 7.38735 1.35102 5.51217 2.89588C4.37696 3.83113 3.37863 4.96317 2.55384 6.25043C2.17784 6.83727 1.85584 7.45707 1.5811 8.11675C0.73973 10.1369 0.364443 12.4795 0.181546 15.273C-1.04828e-05 18.0459 -5.65272e-06 21.4451 3.0776e-07 25.6362V25.8306C-1.86826e-05 30.6736 -3.37875e-05 34.4699 0.28774 37.4818C0.58141 40.5553 1.19145 43.0457 2.55384 45.172C3.37863 46.4593 4.37695 47.5913 5.51217 48.5266C7.38735 50.0714 9.58358 50.7632 12.2941 51.0962C14.9502 51.4225 18.2981 51.4225 22.569 51.4225H27.4309C31.7018 51.4225 35.0498 51.4225 37.7059 51.0962C40.4164 50.7632 42.6127 50.0714 44.4878 48.5266C45.623 47.5913 46.6214 46.4593 47.4462 45.172C48.8085 43.0457 49.4186 40.5553 49.7123 37.4818C50 34.47 50 30.6737 50 25.8308V25.6345C50 21.4148 50 17.9975 49.8145 15.2133C49.6276 12.4075 49.2438 10.0571 48.3828 8.03103C48.116 7.4031 47.8057 6.8116 47.4462 6.25043C46.6214 4.96317 45.623 3.83113 44.4878 2.89588C42.6127 1.35102 40.4164 0.659279 37.7059 0.326277ZM7.56259 6.09601C8.74399 5.12271 10.2561 4.55538 12.6699 4.25884C15.1163 3.95829 18.2754 3.95558 22.6744 3.95558H27.3256C31.7246 3.95558 34.8837 3.95829 37.3301 4.25884C39.7439 4.55538 41.256 5.12271 42.4374 6.09601C43.2761 6.78695 44.0137 7.6232 44.6231 8.57409L40.211 13.5771C36.3002 18.0117 33.4885 21.194 31.0634 23.2922C28.6785 25.3555 26.8735 26.1831 25 26.1831C23.1265 26.1831 21.3215 25.3555 18.9366 23.2922C16.5115 21.194 13.6998 18.0117 9.78898 13.5771L5.37687 8.57409C5.98633 7.6232 6.72392 6.78695 7.56259 6.09601ZM46.0169 12.5876C46.1574 13.4321 46.2617 14.3954 46.3361 15.5112C46.5105 18.1295 46.5116 21.3992 46.5116 25.7112C46.5116 30.6994 46.5092 34.2817 46.2442 37.0557C45.9827 39.7927 45.4823 41.5074 44.624 42.847C44.0144 43.7985 43.2765 44.6352 42.4374 45.3265C41.256 46.2998 39.7439 46.8671 37.3301 47.1636C34.8837 47.4642 31.7246 47.4669 27.3256 47.4669H22.6744C18.2754 47.4669 15.1163 47.4642 12.6699 47.1636C10.2561 46.8671 8.74399 46.2998 7.56259 45.3265C6.72351 44.6352 5.98562 43.7985 5.376 42.847C4.51765 41.5074 4.01733 39.7927 3.75582 37.0557C3.49077 34.2817 3.48837 30.6994 3.48837 25.7112C3.48837 21.4298 3.48947 18.1757 3.66034 15.5658C3.73491 14.4269 3.84026 13.4459 3.98305 12.5876L7.41668 16.4811C11.2127 20.7855 14.1875 24.1588 16.8207 26.4369C19.5158 28.7687 22.0571 30.1387 25 30.1387C27.9429 30.1387 30.4842 28.7687 33.1793 26.4369C35.8125 24.1588 38.7873 20.7856 42.5833 16.4812L46.0169 12.5876Z" fill="url(#paint0_linear_31_191)"/>
<defs>
<linearGradient id="paint0_linear_31_191" x1="25" y1="0" x2="25" y2="51.4225" gradientUnits="userSpaceOnUse">
<stop stop-color="#99CCFF"/>
<stop offset="1" stop-color="#3399FF"/>
</linearGradient>
</defs>
</svg>
