<svg width="277" height="40" viewBox="0 0 277 40" fill="none" xmlns="http://www.w3.org/2000/svg">
<path d="M15.936 4.848C20.224 4.848 23.92 6.208 27.024 8.928L23.04 13.104C21.856 12.208 20.752 11.568 19.728 11.184C18.736 10.768 17.584 10.56 16.272 10.56C13.808 10.56 11.84 11.536 10.368 13.488C8.896 15.408 8.16 18.336 8.16 22.272C8.16 26.528 8.72 29.552 9.84 31.344C10.96 33.104 12.704 33.984 15.072 33.984C16.736 33.984 18.24 33.616 19.584 32.88V25.344H15.264L14.496 19.776H27.216V36.24C25.488 37.36 23.584 38.224 21.504 38.832C19.424 39.44 17.344 39.744 15.264 39.744C10.208 39.744 6.4 38.272 3.84 35.328C1.28 32.352 0 28 0 22.272C0 18.624 0.688 15.488 2.064 12.864C3.472 10.24 5.376 8.256 7.776 6.912C10.208 5.536 12.928 4.848 15.936 4.848Z" fill="#001224"/>
<path d="M53.8335 38.928H47.2575L46.9215 35.712C45.0655 38.4 42.4895 39.744 39.1935 39.744C36.8575 39.744 35.0815 39.04 33.8655 37.632C32.6815 36.224 32.0895 34.256 32.0895 31.728V13.44H39.6735V30.768C39.6735 32.016 39.8655 32.896 40.2495 33.408C40.6655 33.888 41.2895 34.128 42.1215 34.128C43.7215 34.128 45.0975 33.136 46.2495 31.152V13.44H53.8335V38.928Z" fill="#001224"/>
<path d="M68.7743 12.624C70.5983 12.624 72.3102 12.896 73.9102 13.44C75.5102 13.984 76.9183 14.752 78.1343 15.744L75.3503 20.016C73.2703 18.704 71.1742 18.048 69.0622 18.048C68.0702 18.048 67.3022 18.224 66.7582 18.576C66.2462 18.896 65.9902 19.36 65.9902 19.968C65.9902 20.448 66.1022 20.848 66.3262 21.168C66.5822 21.456 67.0782 21.76 67.8142 22.08C68.5502 22.4 69.6863 22.784 71.2223 23.232C73.8783 24 75.8463 25.008 77.1263 26.256C78.4383 27.472 79.0943 29.168 79.0943 31.344C79.0943 33.072 78.5983 34.576 77.6063 35.856C76.6143 37.104 75.2543 38.064 73.5263 38.736C71.7983 39.408 69.8783 39.744 67.7663 39.744C65.6223 39.744 63.6223 39.408 61.7663 38.736C59.9423 38.064 58.3902 37.136 57.1102 35.952L60.8063 31.824C62.9503 33.488 65.2062 34.32 67.5742 34.32C68.7262 34.32 69.6223 34.112 70.2623 33.696C70.9343 33.28 71.2702 32.688 71.2702 31.92C71.2702 31.312 71.1423 30.832 70.8863 30.48C70.6303 30.128 70.1343 29.808 69.3983 29.52C68.6623 29.2 67.4942 28.816 65.8942 28.368C63.3662 27.632 61.4783 26.608 60.2303 25.296C58.9823 23.984 58.3582 22.352 58.3582 20.4C58.3582 18.928 58.7743 17.616 59.6063 16.464C60.4703 15.28 61.6862 14.352 63.2542 13.68C64.8542 12.976 66.6943 12.624 68.7743 12.624Z" fill="#001224"/>
<path d="M98.9854 37.728C98.0574 38.368 96.9694 38.864 95.7214 39.216C94.5054 39.568 93.2894 39.744 92.0734 39.744C86.5054 39.712 83.7214 36.64 83.7214 30.528V18.72H80.1214V13.44H83.7214V7.92L91.3054 7.056V13.44H97.1614L96.3454 18.72H91.3054V30.432C91.3054 31.616 91.4974 32.464 91.8814 32.976C92.2654 33.488 92.8734 33.744 93.7054 33.744C94.5694 33.744 95.4814 33.472 96.4414 32.928L98.9854 37.728Z" fill="#001224"/>
<path d="M121.211 31.536C121.211 32.496 121.338 33.2 121.594 33.648C121.882 34.096 122.33 34.432 122.938 34.656L121.354 39.6C119.786 39.472 118.507 39.136 117.515 38.592C116.523 38.016 115.755 37.12 115.211 35.904C113.547 38.464 110.987 39.744 107.531 39.744C105.003 39.744 102.986 39.008 101.482 37.536C99.9785 36.064 99.2265 34.144 99.2265 31.776C99.2265 28.992 100.25 26.864 102.299 25.392C104.347 23.92 107.306 23.184 111.178 23.184H113.771V22.08C113.771 20.576 113.451 19.552 112.811 19.008C112.171 18.432 111.051 18.144 109.451 18.144C108.619 18.144 107.61 18.272 106.426 18.528C105.242 18.752 104.027 19.072 102.779 19.488L101.05 14.496C102.65 13.888 104.283 13.424 105.947 13.104C107.643 12.784 109.21 12.624 110.65 12.624C114.298 12.624 116.971 13.376 118.667 14.88C120.363 16.384 121.211 18.64 121.211 21.648V31.536ZM109.739 34.32C111.467 34.32 112.811 33.504 113.771 31.872V27.36H111.898C110.17 27.36 108.874 27.664 108.01 28.272C107.178 28.88 106.762 29.824 106.762 31.104C106.762 32.128 107.019 32.928 107.531 33.504C108.075 34.048 108.811 34.32 109.739 34.32Z" fill="#001224"/>
<path d="M148.484 13.44L140.468 38.928H131.492L123.284 13.44H131.54L136.052 33.168L140.756 13.44H148.484Z" fill="#001224"/>
<path d="M161.823 12.624C165.727 12.624 168.783 13.824 170.991 16.224C173.199 18.592 174.303 21.92 174.303 26.208C174.303 28.928 173.791 31.312 172.767 33.36C171.775 35.376 170.335 36.944 168.447 38.064C166.591 39.184 164.383 39.744 161.823 39.744C157.951 39.744 154.895 38.56 152.655 36.192C150.447 33.792 149.343 30.448 149.343 26.16C149.343 23.44 149.839 21.072 150.831 19.056C151.855 17.008 153.295 15.424 155.151 14.304C157.039 13.184 159.263 12.624 161.823 12.624ZM161.823 18.192C160.287 18.192 159.135 18.848 158.367 20.16C157.599 21.44 157.215 23.44 157.215 26.16C157.215 28.944 157.583 30.976 158.319 32.256C159.087 33.536 160.255 34.176 161.823 34.176C163.359 34.176 164.511 33.536 165.279 32.256C166.047 30.944 166.431 28.928 166.431 26.208C166.431 23.424 166.047 21.392 165.279 20.112C164.543 18.832 163.391 18.192 161.823 18.192Z" fill="#001224"/>
<path d="M201.053 4.848C203.549 4.848 205.709 5.2 207.533 5.904C209.389 6.608 211.068 7.68 212.572 9.12L208.924 13.392C206.652 11.536 204.22 10.608 201.628 10.608C200.252 10.608 199.165 10.896 198.365 11.472C197.565 12.016 197.165 12.816 197.165 13.872C197.165 14.608 197.341 15.216 197.693 15.696C198.045 16.144 198.668 16.576 199.564 16.992C200.46 17.408 201.804 17.904 203.596 18.48C206.988 19.568 209.485 20.912 211.085 22.512C212.685 24.08 213.484 26.32 213.484 29.232C213.484 31.312 212.956 33.152 211.9 34.752C210.844 36.32 209.325 37.552 207.34 38.448C205.356 39.312 203.005 39.744 200.285 39.744C197.564 39.744 195.148 39.312 193.036 38.448C190.956 37.584 189.165 36.432 187.661 34.992L191.645 30.624C192.925 31.712 194.237 32.528 195.581 33.072C196.957 33.616 198.444 33.888 200.044 33.888C201.676 33.888 202.957 33.536 203.885 32.832C204.845 32.096 205.324 31.088 205.324 29.808C205.324 28.976 205.149 28.288 204.797 27.744C204.445 27.168 203.837 26.656 202.973 26.208C202.109 25.76 200.861 25.28 199.229 24.768C195.549 23.648 192.925 22.272 191.357 20.64C189.821 19.008 189.053 16.944 189.053 14.448C189.053 12.528 189.565 10.848 190.589 9.408C191.613 7.936 193.037 6.816 194.861 6.048C196.685 5.248 198.749 4.848 201.053 4.848Z" fill="#0066CC"/>
<path d="M237.929 31.536C237.929 32.496 238.057 33.2 238.313 33.648C238.601 34.096 239.049 34.432 239.657 34.656L238.073 39.6C236.505 39.472 235.225 39.136 234.233 38.592C233.241 38.016 232.473 37.12 231.929 35.904C230.265 38.464 227.705 39.744 224.249 39.744C221.721 39.744 219.705 39.008 218.201 37.536C216.697 36.064 215.945 34.144 215.945 31.776C215.945 28.992 216.969 26.864 219.017 25.392C221.065 23.92 224.025 23.184 227.897 23.184H230.489V22.08C230.489 20.576 230.169 19.552 229.529 19.008C228.889 18.432 227.769 18.144 226.169 18.144C225.337 18.144 224.329 18.272 223.145 18.528C221.961 18.752 220.745 19.072 219.497 19.488L217.769 14.496C219.369 13.888 221.001 13.424 222.665 13.104C224.361 12.784 225.929 12.624 227.369 12.624C231.017 12.624 233.689 13.376 235.385 14.88C237.081 16.384 237.929 18.64 237.929 21.648V31.536ZM226.457 34.32C228.185 34.32 229.529 33.504 230.489 31.872V27.36H228.617C226.889 27.36 225.593 27.664 224.729 28.272C223.897 28.88 223.481 29.824 223.481 31.104C223.481 32.128 223.737 32.928 224.249 33.504C224.793 34.048 225.529 34.32 226.457 34.32Z" fill="#0066CC"/>
<path d="M265.203 13.44L257.187 38.928H248.211L240.003 13.44H248.259L252.771 33.168L257.475 13.44H265.203Z" fill="#0066CC"/>
<path d="M275.46 13.44V38.928H267.876V13.44H275.46ZM271.62 0C272.932 0 274.004 0.416 274.836 1.248C275.7 2.048 276.132 3.072 276.132 4.32C276.132 5.568 275.7 6.608 274.836 7.44C274.004 8.24 272.932 8.64 271.62 8.64C270.308 8.64 269.236 8.24 268.404 7.44C267.572 6.608 267.156 5.568 267.156 4.32C267.156 3.072 267.572 2.048 268.404 1.248C269.236 0.416 270.308 0 271.62 0Z" fill="#0066CC"/>
</svg>
