<svg width="59" height="59" viewBox="0 0 59 59" fill="none" xmlns="http://www.w3.org/2000/svg">
<path d="M37.9167 43.75C37.3398 43.75 36.7759 43.9211 36.2963 44.2415C35.8166 44.562 35.4428 45.0176 35.222 45.5505C35.0013 46.0835 34.9435 46.6699 35.056 47.2357C35.1686 47.8015 35.4464 48.3212 35.8543 48.7291C36.2622 49.137 36.7819 49.4147 37.3477 49.5273C37.9134 49.6398 38.4999 49.5821 39.0328 49.3613C39.5658 49.1406 40.0213 48.7667 40.3418 48.2871C40.6623 47.8074 40.8333 47.2435 40.8333 46.6667C40.8333 45.8931 40.526 45.1512 39.9791 44.6043C39.4321 44.0573 38.6902 43.75 37.9167 43.75ZM20.4167 43.75H11.6667C10.8931 43.75 10.1513 44.0573 9.60427 44.6043C9.05729 45.1512 8.75 45.8931 8.75 46.6667C8.75 47.4402 9.05729 48.1821 9.60427 48.7291C10.1513 49.276 10.8931 49.5833 11.6667 49.5833H20.4167C21.1902 49.5833 21.9321 49.276 22.4791 48.7291C23.026 48.1821 23.3333 47.4402 23.3333 46.6667C23.3333 45.8931 23.026 45.1512 22.4791 44.6043C21.9321 44.0573 21.1902 43.75 20.4167 43.75ZM46.6667 43.75C46.0898 43.75 45.5259 43.9211 45.0462 44.2415C44.5666 44.562 44.1928 45.0176 43.972 45.5505C43.7513 46.0835 43.6935 46.6699 43.806 47.2357C43.9186 47.8015 44.1964 48.3212 44.6043 48.7291C45.0122 49.137 45.5319 49.4147 46.0976 49.5273C46.6634 49.6398 47.2499 49.5821 47.7828 49.3613C48.3158 49.1406 48.7713 48.7667 49.0918 48.2871C49.4123 47.8074 49.5833 47.2435 49.5833 46.6667C49.5833 45.8931 49.276 45.1512 48.7291 44.6043C48.1821 44.0573 47.4402 43.75 46.6667 43.75ZM37.9167 26.25C37.3398 26.25 36.7759 26.4211 36.2963 26.7415C35.8166 27.062 35.4428 27.5176 35.222 28.0505C35.0013 28.5835 34.9435 29.1699 35.056 29.7357C35.1686 30.3015 35.4464 30.8212 35.8543 31.2291C36.2622 31.637 36.7819 31.9147 37.3477 32.0273C37.9134 32.1398 38.4999 32.0821 39.0328 31.8613C39.5658 31.6406 40.0213 31.2667 40.3418 30.7871C40.6623 30.3074 40.8333 29.7435 40.8333 29.1667C40.8333 28.3931 40.526 27.6513 39.9791 27.1043C39.4321 26.5573 38.6902 26.25 37.9167 26.25ZM20.4167 26.25H11.6667C10.8931 26.25 10.1513 26.5573 9.60427 27.1043C9.05729 27.6513 8.75 28.3931 8.75 29.1667C8.75 29.9402 9.05729 30.6821 9.60427 31.2291C10.1513 31.776 10.8931 32.0833 11.6667 32.0833H20.4167C21.1902 32.0833 21.9321 31.776 22.4791 31.2291C23.026 30.6821 23.3333 29.9402 23.3333 29.1667C23.3333 28.3931 23.026 27.6513 22.4791 27.1043C21.9321 26.5573 21.1902 26.25 20.4167 26.25ZM46.6667 8.75C46.0898 8.75 45.5259 8.92106 45.0462 9.24155C44.5666 9.56203 44.1928 10.0176 43.972 10.5505C43.7513 11.0835 43.6935 11.6699 43.806 12.2357C43.9186 12.8015 44.1964 13.3212 44.6043 13.7291C45.0122 14.137 45.5319 14.4147 46.0976 14.5273C46.6634 14.6398 47.2499 14.5821 47.7828 14.3613C48.3158 14.1406 48.7713 13.7667 49.0918 13.2871C49.4123 12.8074 49.5833 12.2435 49.5833 11.6667C49.5833 10.8931 49.276 10.1513 48.7291 9.60427C48.1821 9.05729 47.4402 8.75 46.6667 8.75ZM46.6667 26.25C46.0898 26.25 45.5259 26.4211 45.0462 26.7415C44.5666 27.062 44.1928 27.5176 43.972 28.0505C43.7513 28.5835 43.6935 29.1699 43.806 29.7357C43.9186 30.3015 44.1964 30.8212 44.6043 31.2291C45.0122 31.637 45.5319 31.9147 46.0976 32.0273C46.6634 32.1398 47.2499 32.0821 47.7828 31.8613C48.3158 31.6406 48.7713 31.2667 49.0918 30.7871C49.4123 30.3074 49.5833 29.7435 49.5833 29.1667C49.5833 28.3931 49.276 27.6513 48.7291 27.1043C48.1821 26.5573 47.4402 26.25 46.6667 26.25ZM58.3333 8.75C58.3333 6.42936 57.4115 4.20376 55.7705 2.56282C54.1296 0.921873 51.904 0 49.5833 0H8.75C6.42936 0 4.20376 0.921873 2.56282 2.56282C0.921873 4.20376 0 6.42936 0 8.75V14.5833C0.0128643 16.7418 0.823115 18.8194 2.275 20.4167C0.823115 22.0139 0.0128643 24.0915 0 26.25V32.0833C0.0128643 34.2418 0.823115 36.3194 2.275 37.9167C0.823115 39.5139 0.0128643 41.5915 0 43.75V49.5833C0 51.904 0.921873 54.1296 2.56282 55.7705C4.20376 57.4115 6.42936 58.3333 8.75 58.3333H49.5833C51.904 58.3333 54.1296 57.4115 55.7705 55.7705C57.4115 54.1296 58.3333 51.904 58.3333 49.5833V43.75C58.3205 41.5915 57.5102 39.5139 56.0583 37.9167C57.5102 36.3194 58.3205 34.2418 58.3333 32.0833V26.25C58.3205 24.0915 57.5102 22.0139 56.0583 20.4167C57.5102 18.8194 58.3205 16.7418 58.3333 14.5833V8.75ZM52.5 49.5833C52.5 50.3569 52.1927 51.0987 51.6457 51.6457C51.0987 52.1927 50.3569 52.5 49.5833 52.5H8.75C7.97645 52.5 7.23459 52.1927 6.68761 51.6457C6.14062 51.0987 5.83333 50.3569 5.83333 49.5833V43.75C5.83333 42.9764 6.14062 42.2346 6.68761 41.6876C7.23459 41.1406 7.97645 40.8333 8.75 40.8333H49.5833C50.3569 40.8333 51.0987 41.1406 51.6457 41.6876C52.1927 42.2346 52.5 42.9764 52.5 43.75V49.5833ZM52.5 32.0833C52.5 32.8569 52.1927 33.5987 51.6457 34.1457C51.0987 34.6927 50.3569 35 49.5833 35H8.75C7.97645 35 7.23459 34.6927 6.68761 34.1457C6.14062 33.5987 5.83333 32.8569 5.83333 32.0833V26.25C5.83333 25.4765 6.14062 24.7346 6.68761 24.1876C7.23459 23.6406 7.97645 23.3333 8.75 23.3333H49.5833C50.3569 23.3333 51.0987 23.6406 51.6457 24.1876C52.1927 24.7346 52.5 25.4765 52.5 26.25V32.0833ZM52.5 14.5833C52.5 15.3569 52.1927 16.0987 51.6457 16.6457C51.0987 17.1927 50.3569 17.5 49.5833 17.5H8.75C7.97645 17.5 7.23459 17.1927 6.68761 16.6457C6.14062 16.0987 5.83333 15.3569 5.83333 14.5833V8.75C5.83333 7.97645 6.14062 7.23459 6.68761 6.68761C7.23459 6.14062 7.97645 5.83333 8.75 5.83333H49.5833C50.3569 5.83333 51.0987 6.14062 51.6457 6.68761C52.1927 7.23459 52.5 7.97645 52.5 8.75V14.5833ZM37.9167 8.75C37.3398 8.75 36.7759 8.92106 36.2963 9.24155C35.8166 9.56203 35.4428 10.0176 35.222 10.5505C35.0013 11.0835 34.9435 11.6699 35.056 12.2357C35.1686 12.8015 35.4464 13.3212 35.8543 13.7291C36.2622 14.137 36.7819 14.4147 37.3477 14.5273C37.9134 14.6398 38.4999 14.5821 39.0328 14.3613C39.5658 14.1406 40.0213 13.7667 40.3418 13.2871C40.6623 12.8074 40.8333 12.2435 40.8333 11.6667C40.8333 10.8931 40.526 10.1513 39.9791 9.60427C39.4321 9.05729 38.6902 8.75 37.9167 8.75ZM20.4167 8.75H11.6667C10.8931 8.75 10.1513 9.05729 9.60427 9.60427C9.05729 10.1513 8.75 10.8931 8.75 11.6667C8.75 12.4402 9.05729 13.1821 9.60427 13.7291C10.1513 14.276 10.8931 14.5833 11.6667 14.5833H20.4167C21.1902 14.5833 21.9321 14.276 22.4791 13.7291C23.026 13.1821 23.3333 12.4402 23.3333 11.6667C23.3333 10.8931 23.026 10.1513 22.4791 9.60427C21.9321 9.05729 21.1902 8.75 20.4167 8.75Z" fill="currentColor"/>
</svg>
