<svg width="70" height="70" viewBox="0 0 70 70" fill="none" xmlns="http://www.w3.org/2000/svg">
<path d="M43.75 49.5834C43.1731 49.5834 42.6092 49.7544 42.1296 50.0749C41.6499 50.3954 41.2761 50.8509 41.0553 51.3839C40.8346 51.9168 40.7768 52.5033 40.8894 53.0691C41.0019 53.6348 41.2797 54.1545 41.6876 54.5624C42.0955 54.9703 42.6152 55.2481 43.181 55.3607C43.7467 55.4732 44.3332 55.4154 44.8661 55.1947C45.3991 54.9739 45.8546 54.6001 46.1751 54.1205C46.4956 53.6408 46.6666 53.0769 46.6666 52.5C46.6666 51.7265 46.3594 50.9846 45.8124 50.4376C45.2654 49.8907 44.5235 49.5834 43.75 49.5834ZM26.25 49.5834H17.5C16.7264 49.5834 15.9846 49.8907 15.4376 50.4376C14.8906 50.9846 14.5833 51.7265 14.5833 52.5C14.5833 53.2736 14.8906 54.0155 15.4376 54.5624C15.9846 55.1094 16.7264 55.4167 17.5 55.4167H26.25C27.0235 55.4167 27.7654 55.1094 28.3124 54.5624C28.8594 54.0155 29.1666 53.2736 29.1666 52.5C29.1666 51.7265 28.8594 50.9846 28.3124 50.4376C27.7654 49.8907 27.0235 49.5834 26.25 49.5834ZM52.5 49.5834C51.9231 49.5834 51.3592 49.7544 50.8796 50.0749C50.3999 50.3954 50.0261 50.8509 49.8053 51.3839C49.5846 51.9168 49.5268 52.5033 49.6394 53.0691C49.7519 53.6348 50.0297 54.1545 50.4376 54.5624C50.8455 54.9703 51.3652 55.2481 51.931 55.3607C52.4967 55.4732 53.0832 55.4154 53.6161 55.1947C54.1491 54.9739 54.6046 54.6001 54.9251 54.1205C55.2456 53.6408 55.4166 53.0769 55.4166 52.5C55.4166 51.7265 55.1094 50.9846 54.5624 50.4376C54.0154 49.8907 53.2735 49.5834 52.5 49.5834ZM43.75 32.0834C43.1731 32.0834 42.6092 32.2544 42.1296 32.5749C41.6499 32.8954 41.2761 33.3509 41.0553 33.8839C40.8346 34.4168 40.7768 35.0033 40.8894 35.5691C41.0019 36.1348 41.2797 36.6545 41.6876 37.0624C42.0955 37.4703 42.6152 37.7481 43.181 37.8607C43.7467 37.9732 44.3332 37.9154 44.8661 37.6947C45.3991 37.4739 45.8546 37.1001 46.1751 36.6205C46.4956 36.1408 46.6666 35.5769 46.6666 35C46.6666 34.2265 46.3594 33.4846 45.8124 32.9376C45.2654 32.3907 44.5235 32.0834 43.75 32.0834ZM26.25 32.0834H17.5C16.7264 32.0834 15.9846 32.3907 15.4376 32.9376C14.8906 33.4846 14.5833 34.2265 14.5833 35C14.5833 35.7736 14.8906 36.5155 15.4376 37.0624C15.9846 37.6094 16.7264 37.9167 17.5 37.9167H26.25C27.0235 37.9167 27.7654 37.6094 28.3124 37.0624C28.8594 36.5155 29.1666 35.7736 29.1666 35C29.1666 34.2265 28.8594 33.4846 28.3124 32.9376C27.7654 32.3907 27.0235 32.0834 26.25 32.0834ZM52.5 14.5834C51.9231 14.5834 51.3592 14.7544 50.8796 15.0749C50.3999 15.3954 50.0261 15.8509 49.8053 16.3839C49.5846 16.9168 49.5268 17.5033 49.6394 18.0691C49.7519 18.6348 50.0297 19.1545 50.4376 19.5624C50.8455 19.9703 51.3652 20.2481 51.931 20.3607C52.4967 20.4732 53.0832 20.4154 53.6161 20.1947C54.1491 19.9739 54.6046 19.6001 54.9251 19.1205C55.2456 18.6408 55.4166 18.0769 55.4166 17.5C55.4166 16.7265 55.1094 15.9846 54.5624 15.4376C54.0154 14.8907 53.2735 14.5834 52.5 14.5834ZM52.5 32.0834C51.9231 32.0834 51.3592 32.2544 50.8796 32.5749C50.3999 32.8954 50.0261 33.3509 49.8053 33.8839C49.5846 34.4168 49.5268 35.0033 49.6394 35.5691C49.7519 36.1348 50.0297 36.6545 50.4376 37.0624C50.8455 37.4703 51.3652 37.7481 51.931 37.8607C52.4967 37.9732 53.0832 37.9154 53.6161 37.6947C54.1491 37.4739 54.6046 37.1001 54.9251 36.6205C55.2456 36.1408 55.4166 35.5769 55.4166 35C55.4166 34.2265 55.1094 33.4846 54.5624 32.9376C54.0154 32.3907 53.2735 32.0834 52.5 32.0834ZM64.1666 14.5834C64.1666 12.2627 63.2448 10.0371 61.6038 8.39619C59.9629 6.75525 57.7373 5.83337 55.4166 5.83337H14.5833C12.2627 5.83337 10.0371 6.75525 8.39613 8.39619C6.75519 10.0371 5.83331 12.2627 5.83331 14.5834V20.4167C5.84618 22.5752 6.65643 24.6528 8.10831 26.25C6.65643 27.8473 5.84618 29.9249 5.83331 32.0834V37.9167C5.84618 40.0752 6.65643 42.1528 8.10831 43.75C6.65643 45.3473 5.84618 47.4249 5.83331 49.5834V55.4167C5.83331 57.7373 6.75519 59.9629 8.39613 61.6039C10.0371 63.2448 12.2627 64.1667 14.5833 64.1667H55.4166C57.7373 64.1667 59.9629 63.2448 61.6038 61.6039C63.2448 59.9629 64.1666 57.7373 64.1666 55.4167V49.5834C64.1538 47.4249 63.3435 45.3473 61.8916 43.75C63.3435 42.1528 64.1538 40.0752 64.1666 37.9167V32.0834C64.1538 29.9249 63.3435 27.8473 61.8916 26.25C63.3435 24.6528 64.1538 22.5752 64.1666 20.4167V14.5834ZM58.3333 55.4167C58.3333 56.1903 58.026 56.9321 57.479 57.4791C56.9321 58.0261 56.1902 58.3334 55.4166 58.3334H14.5833C13.8098 58.3334 13.0679 58.0261 12.5209 57.4791C11.9739 56.9321 11.6666 56.1903 11.6666 55.4167V49.5834C11.6666 48.8098 11.9739 48.068 12.5209 47.521C13.0679 46.974 13.8098 46.6667 14.5833 46.6667H55.4166C56.1902 46.6667 56.9321 46.974 57.479 47.521C58.026 48.068 58.3333 48.8098 58.3333 49.5834V55.4167ZM58.3333 37.9167C58.3333 38.6903 58.026 39.4321 57.479 39.9791C56.9321 40.5261 56.1902 40.8334 55.4166 40.8334H14.5833C13.8098 40.8334 13.0679 40.5261 12.5209 39.9791C11.9739 39.4321 11.6666 38.6903 11.6666 37.9167V32.0834C11.6666 31.3098 11.9739 30.568 12.5209 30.021C13.0679 29.474 13.8098 29.1667 14.5833 29.1667H55.4166C56.1902 29.1667 56.9321 29.474 57.479 30.021C58.026 30.568 58.3333 31.3098 58.3333 32.0834V37.9167ZM58.3333 20.4167C58.3333 21.1903 58.026 21.9321 57.479 22.4791C56.9321 23.0261 56.1902 23.3334 55.4166 23.3334H14.5833C13.8098 23.3334 13.0679 23.0261 12.5209 22.4791C11.9739 21.9321 11.6666 21.1903 11.6666 20.4167V14.5834C11.6666 13.8098 11.9739 13.068 12.5209 12.521C13.0679 11.974 13.8098 11.6667 14.5833 11.6667H55.4166C56.1902 11.6667 56.9321 11.974 57.479 12.521C58.026 13.068 58.3333 13.8098 58.3333 14.5834V20.4167ZM43.75 14.5834C43.1731 14.5834 42.6092 14.7544 42.1296 15.0749C41.6499 15.3954 41.2761 15.8509 41.0553 16.3839C40.8346 16.9168 40.7768 17.5033 40.8894 18.0691C41.0019 18.6348 41.2797 19.1545 41.6876 19.5624C42.0955 19.9703 42.6152 20.2481 43.181 20.3607C43.7467 20.4732 44.3332 20.4154 44.8661 20.1947C45.3991 19.9739 45.8546 19.6001 46.1751 19.1205C46.4956 18.6408 46.6666 18.0769 46.6666 17.5C46.6666 16.7265 46.3594 15.9846 45.8124 15.4376C45.2654 14.8907 44.5235 14.5834 43.75 14.5834ZM26.25 14.5834H17.5C16.7264 14.5834 15.9846 14.8907 15.4376 15.4376C14.8906 15.9846 14.5833 16.7265 14.5833 17.5C14.5833 18.2736 14.8906 19.0155 15.4376 19.5624C15.9846 20.1094 16.7264 20.4167 17.5 20.4167H26.25C27.0235 20.4167 27.7654 20.1094 28.3124 19.5624C28.8594 19.0155 29.1666 18.2736 29.1666 17.5C29.1666 16.7265 28.8594 15.9846 28.3124 15.4376C27.7654 14.8907 27.0235 14.5834 26.25 14.5834Z" fill="#001933"/>
</svg>
